# This file uses centimeters as units for non-parametric coordinates.

mtllib ground.mtl
g default
v -106.131220 -64.119690 83.333275
v 106.131220 -64.119690 83.333275
v -106.131220 0.500000 83.333275
v 106.131220 0.500000 83.333275
v -106.131220 0.500000 -11.101719
v 106.131220 0.500000 -11.101719
v -106.131220 -64.119690 -11.101719
v 106.131220 -64.119690 -11.101719
vt 0.044898 0.423877
vt 0.110454 0.423877
vt 0.110454 0.576123
vt 0.044898 0.576123
vt 0.116823 0.423877
vt 0.182380 0.423877
vt 0.182380 0.576123
vt 0.116823 0.576123
vt 0.537560 0.732982
vt 0.552973 0.732982
vt 0.552973 0.884853
vt 0.537560 0.884853
vt 0.210879 0.423877
vt 0.226293 0.423877
vt 0.226293 0.433898
vt 0.210879 0.433898
vt 0.000452 0.423877
vt 0.015865 0.423877
vt 0.015865 0.576123
vt 0.000452 0.576123
vt 0.022767 0.423877
vt 0.038180 0.423877
vt 0.038180 0.576123
vt 0.022767 0.576123
vn 0.000000 0.000000 1.000000
vn 0.000000 0.000000 1.000000
vn 0.000000 0.000000 1.000000
vn 0.000000 0.000000 1.000000
vn 0.000000 1.000000 0.000000
vn 0.000000 1.000000 0.000000
vn 0.000000 1.000000 0.000000
vn 0.000000 1.000000 0.000000
vn 0.000000 0.000000 -1.000000
vn 0.000000 0.000000 -1.000000
vn 0.000000 0.000000 -1.000000
vn 0.000000 0.000000 -1.000000
vn 0.000000 -1.000000 0.000000
vn 0.000000 -1.000000 0.000000
vn 0.000000 -1.000000 0.000000
vn 0.000000 -1.000000 0.000000
vn 1.000000 0.000000 0.000000
vn 1.000000 0.000000 0.000000
vn 1.000000 0.000000 0.000000
vn 1.000000 0.000000 0.000000
vn -1.000000 0.000000 0.000000
vn -1.000000 0.000000 0.000000
vn -1.000000 0.000000 0.000000
vn -1.000000 0.000000 0.000000
s off
g pasted__pCube1
usemtl initialShadingGroup
f 1/17/1 2/18/2 4/19/3 3/20/4
f 3/9/5 4/10/6 6/11/7 5/12/8
f 5/21/9 6/22/10 8/23/11 7/24/12
f 7/13/13 8/14/14 2/15/15 1/16/16
f 2/1/17 8/2/18 6/3/19 4/4/20
f 7/5/21 1/6/22 3/7/23 5/8/24
