# This file uses centimeters as units for non-parametric coordinates.

mtllib stair.mtl
g default
v -106.131220 -12.218015 -14.794634
v 106.131220 -12.218015 -14.794634
v -106.131220 13.077998 -19.139790
v 106.131220 13.077998 -19.139790
v -106.131220 -12.218015 -19.139790
v 106.131220 -12.218015 -19.139790
v -106.131220 13.077998 -15.011869
v -106.131220 12.860762 -14.794634
v 106.131220 13.077998 -15.011869
v 106.131220 12.860762 -14.794634
vt 0.251204 0.001997
vt 0.494506 0.001997
vt 0.494506 0.500266
vt 0.263369 0.500266
vt 0.251204 0.495988
vt 0.500345 0.001997
vt 0.743648 0.001997
vt 0.743648 0.495988
vt 0.731484 0.500266
vt 0.500345 0.500266
vt 0.445728 0.516184
vt 0.689031 0.516184
vt 0.689031 0.747321
vt 0.445728 0.747321
vt 0.445728 0.504019
vt 0.689031 0.504019
vt 0.196661 0.504016
vt 0.439963 0.504016
vt 0.439963 0.747318
vt 0.196661 0.747318
vt 0.938099 0.973826
vt 0.694796 0.973826
vt 0.694796 0.796426
vt 0.938099 0.796426
vt 0.001872 0.001992
vt 0.245175 0.001992
vt 0.245175 0.500269
vt 0.001872 0.500269
vn 0.000000 0.000000 1.000000
vn 0.000000 0.000000 1.000000
vn 0.000000 0.000000 1.000000
vn 0.000000 0.000000 1.000000
vn 0.000000 1.000000 0.000000
vn 0.000000 1.000000 0.000000
vn 0.000000 1.000000 0.000000
vn 0.000000 1.000000 0.000000
vn 0.000000 0.000000 -1.000000
vn 0.000000 0.000000 -1.000000
vn 0.000000 0.000000 -1.000000
vn 0.000000 0.000000 -1.000000
vn 0.000000 -1.000000 0.000000
vn 0.000000 -1.000000 0.000000
vn 0.000000 -1.000000 0.000000
vn 0.000000 -1.000000 0.000000
vn 1.000000 0.000000 0.000000
vn 1.000000 0.000000 0.000000
vn 1.000000 0.000000 0.000000
vn 1.000000 0.000000 0.000000
vn 1.000000 0.000000 0.000000
vn -1.000000 0.000000 0.000000
vn -1.000000 0.000000 0.000000
vn -1.000000 0.000000 0.000000
vn -1.000000 0.000000 0.000000
vn -1.000000 0.000000 0.000000
vn 0.000000 0.707104 0.707109
vn 0.000000 0.707104 0.707109
vn 0.000000 0.707104 0.707109
vn 0.000000 0.707104 0.707109
s off
g pCube1
usemtl initialShadingGroup
f 1/21/1 2/22/2 10/23/3 8/24/4
f 7/11/5 9/12/6 4/13/7 3/14/8
f 3/25/9 4/26/10 6/27/11 5/28/12
f 5/17/13 6/18/14 2/19/15 1/20/16
f 2/1/17 6/2/18 4/3/19 9/4/20 10/5/21
f 5/6/22 1/7/23 8/8/24 7/9/25 3/10/26
f 7/11/27 8/15/28 10/16/29 9/12/30
