# This file uses centimeters as units for non-parametric coordinates.

mtllib wall.mtl
g default
v -106.131220 -35.052750 -35.188849
v 106.131220 -35.052750 -35.188849
v -106.131220 140.499662 -35.188849
v 106.131220 140.499662 -35.188849
v -106.131220 140.499662 -37.088861
v 106.131220 140.499662 -37.088861
v -106.131220 -35.052750 -37.088861
v 106.131220 -35.052750 -37.088861
vt 0.636258 0.273322
vt 0.644910 0.273322
vt 0.644910 0.273322
vt 0.636258 0.273322
vt 0.774285 0.719400
vt 0.780977 0.719400
vt 0.780977 0.729114
vt 0.774285 0.729114
vt 0.568133 0.623015
vt 0.568133 0.623015
vt 0.568133 0.623015
vt 0.568133 0.623015
vt 0.320110 0.623015
vt 0.320110 0.623015
vt 0.320110 0.623015
vt 0.320110 0.623015
vt 0.008441 0.002683
vt 0.991559 0.002683
vt 0.991559 0.997317
vt 0.008441 0.997317
vt 0.372114 0.250064
vt 0.372114 0.250064
vt 0.372114 0.250064
vt 0.372114 0.250064
vn 0.000000 0.000000 1.000000
vn 0.000000 0.000000 1.000000
vn 0.000000 0.000000 1.000000
vn 0.000000 0.000000 1.000000
vn 0.000000 1.000000 0.000000
vn 0.000000 1.000000 0.000000
vn 0.000000 1.000000 0.000000
vn 0.000000 1.000000 0.000000
vn 0.000000 0.000000 -1.000000
vn 0.000000 0.000000 -1.000000
vn 0.000000 0.000000 -1.000000
vn 0.000000 0.000000 -1.000000
vn 0.000000 -1.000000 0.000000
vn 0.000000 -1.000000 0.000000
vn 0.000000 -1.000000 0.000000
vn 0.000000 -1.000000 0.000000
vn 1.000000 0.000000 0.000000
vn 1.000000 0.000000 0.000000
vn 1.000000 0.000000 0.000000
vn 1.000000 0.000000 0.000000
vn -1.000000 0.000000 0.000000
vn -1.000000 0.000000 0.000000
vn -1.000000 0.000000 0.000000
vn -1.000000 0.000000 0.000000
s off
g pasted__pCube2
usemtl lambert2SG
f 1/17/1 2/18/2 4/19/3 3/20/4
f 3/9/5 4/10/6 6/11/7 5/12/8
f 5/21/9 6/22/10 8/23/11 7/24/12
f 7/13/13 8/14/14 2/15/15 1/16/16
f 2/1/17 8/2/18 6/3/19 4/4/20
f 7/5/21 1/6/22 3/7/23 5/8/24
